<?xml version="1.0" encoding="iso-8859-1"?>
<!-- Generator: Adobe Illustrator 19.0.0, SVG Export Plug-In . SVG Version: 6.00 Build 0)  -->
<svg version="1.1" id="Capa_1" xmlns="http://www.w3.org/2000/svg" xmlns:xlink="http://www.w3.org/1999/xlink" x="0px" y="0px"
	 viewBox="0 0 512 512" style="enable-background:new 0 0 512 512;" xml:space="preserve">
<g>
	<g>
		<path d="M376.468,180.704c-24.79,0-44.957,20.167-44.957,44.957s20.167,44.957,44.957,44.957s44.957-20.167,44.957-44.957
			S401.258,180.704,376.468,180.704z"/>
	</g>
</g>
<g>
	<g>
		<path d="M93.318,203.149c-0.947,26.428,2.49,53.231,11.96,79.132c6.6,18.001,3.102,36.777-9.132,49.011l-78.353,78.367
			c-23.439,23.41-23.439,61.353,0,84.763c23.411,23.438,61.354,23.438,84.764-0.001l79.757-79.758
			c11.473-11.488,29.035-14.737,45.894-8.371c26.393,9.92,53.957,13.835,81.149,12.895L93.318,203.149z"/>
	</g>
</g>
<g>
	<g>
		<path d="M510.781,189.645c-6.101-62.709-40.054-119.11-93.118-154.745c-70.757-47.517-165.252-46.42-235.16,2.722
			c-44.499,31.279-73.299,77.565-84.364,127.967l249.165,249.165c38.36-8.42,74.354-27.487,103.125-56.273
			C494.903,314.008,516.898,252.471,510.781,189.645z M376.468,300.589c-41.313,0-74.928-33.615-74.928-74.928
			s33.615-74.928,74.928-74.928c41.313,0,74.928,33.615,74.928,74.928S417.78,300.589,376.468,300.589z"/>
	</g>
</g>
<g>
</g>
<g>
</g>
<g>
</g>
<g>
</g>
<g>
</g>
<g>
</g>
<g>
</g>
<g>
</g>
<g>
</g>
<g>
</g>
<g>
</g>
<g>
</g>
<g>
</g>
<g>
</g>
<g>
</g>
</svg>
